<svg width="50" height="147" viewBox="0 0 50 147" fill="none" xmlns="http://www.w3.org/2000/svg">
<g filter="url(#filter0_i_146_112)">
<rect y="0.111084" width="50" height="50" rx="25" fill="url(#paint0_linear_146_112)"/>
<rect x="0.429167" y="0.540251" width="49.1417" height="49.1417" rx="24.5708" stroke="url(#paint1_linear_146_112)" stroke-width="0.858333"/>
<path d="M19.4767 33.3551C18.2078 33.3551 17.1141 33.0545 16.1955 32.4531C15.2769 31.8471 14.5691 30.9782 14.0719 29.8466C13.5748 28.7102 13.3285 27.3442 13.3333 25.7486C13.338 24.1529 13.5866 22.7988 14.079 21.6861C14.5762 20.5687 15.2817 19.7187 16.1955 19.1364C17.1141 18.5492 18.2078 18.2557 19.4767 18.2557C20.7457 18.2557 21.8394 18.5492 22.758 19.1364C23.6813 19.7187 24.3915 20.5687 24.8887 21.6861C25.3858 22.8035 25.632 24.1577 25.6273 25.7486C25.6273 27.349 25.3787 28.7173 24.8816 29.8537C24.3844 30.9901 23.6766 31.8589 22.758 32.4602C21.8442 33.0568 20.7504 33.3551 19.4767 33.3551ZM19.4767 30.4787C20.2343 30.4787 20.8475 30.0928 21.3162 29.321C21.785 28.5445 22.017 27.3537 22.0123 25.7486C22.0123 24.6974 21.9057 23.831 21.6926 23.1491C21.4796 22.4626 21.1837 21.9512 20.8049 21.6151C20.4261 21.2789 19.9834 21.1108 19.4767 21.1108C18.7239 21.1108 18.1155 21.492 17.6515 22.2543C17.1874 23.0118 16.9531 24.1766 16.9483 25.7486C16.9436 26.8139 17.0454 27.697 17.2537 28.3977C17.4668 29.0985 17.7651 29.6217 18.1486 29.9673C18.5321 30.3082 18.9748 30.4787 19.4767 30.4787ZM34.3667 18.4545V33H30.8581V21.7358H30.7729L27.5201 23.7244V20.6847L31.1067 18.4545H34.3667Z" fill="#3A40D8"/>
</g>
<line x1="25.7153" y1="61.5554" x2="25.7153" y2="146.555" stroke="#3A40D8" stroke-width="1.43056" stroke-dasharray="2.86 2.86"/>
<defs>
<filter id="filter0_i_146_112" x="0" y="0.111084" width="50" height="50.8583" filterUnits="userSpaceOnUse" color-interpolation-filters="sRGB">
<feFlood flood-opacity="0" result="BackgroundImageFix"/>
<feBlend mode="normal" in="SourceGraphic" in2="BackgroundImageFix" result="shape"/>
<feColorMatrix in="SourceAlpha" type="matrix" values="0 0 0 0 0 0 0 0 0 0 0 0 0 0 0 0 0 0 127 0" result="hardAlpha"/>
<feOffset dy="0.858333"/>
<feGaussianBlur stdDeviation="0.858333"/>
<feComposite in2="hardAlpha" operator="arithmetic" k2="-1" k3="1"/>
<feColorMatrix type="matrix" values="0 0 0 0 1 0 0 0 0 1 0 0 0 0 1 0 0 0 0.25 0"/>
<feBlend mode="normal" in2="shape" result="effect1_innerShadow_146_112"/>
</filter>
<linearGradient id="paint0_linear_146_112" x1="25" y1="0.111084" x2="25" y2="50.1111" gradientUnits="userSpaceOnUse">
<stop stop-color="#F3F7FF"/>
<stop offset="1" stop-color="white"/>
</linearGradient>
<linearGradient id="paint1_linear_146_112" x1="0" y1="0.111084" x2="45.8333" y2="58.4444" gradientUnits="userSpaceOnUse">
<stop stop-color="#3A40D8"/>
<stop offset="1" stop-color="#242AB2"/>
</linearGradient>
</defs>
</svg>
