<svg width="50" height="147" viewBox="0 0 50 147" fill="none" xmlns="http://www.w3.org/2000/svg">
<g filter="url(#filter0_i_146_120)">
<rect y="0.55542" width="50" height="50" rx="25" fill="url(#paint0_linear_146_120)"/>
<rect x="0.429167" y="0.984587" width="49.1417" height="49.1417" rx="24.5708" stroke="url(#paint1_linear_146_120)" stroke-width="0.858333"/>
<path d="M18.4767 34.3827C17.2078 34.3827 16.1141 34.082 15.1955 33.4807C14.2769 32.8747 13.5691 32.0058 13.0719 30.8742C12.5748 29.7378 12.3285 28.3718 12.3333 26.7762C12.338 25.1805 12.5866 23.8264 13.079 22.7137C13.5762 21.5962 14.2817 20.7463 15.1955 20.164C16.1141 19.5768 17.2078 19.2833 18.4767 19.2833C19.7457 19.2833 20.8394 19.5768 21.758 20.164C22.6813 20.7463 23.3915 21.5962 23.8887 22.7137C24.3858 23.8311 24.632 25.1853 24.6273 26.7762C24.6273 28.3765 24.3787 29.7449 23.8816 30.8813C23.3844 32.0176 22.6766 32.8865 21.758 33.4878C20.8442 34.0844 19.7504 34.3827 18.4767 34.3827ZM18.4767 31.5063C19.2343 31.5063 19.8475 31.1204 20.3162 30.3486C20.785 29.5721 21.017 28.3813 21.0123 26.7762C21.0123 25.725 20.9057 24.8586 20.6926 24.1767C20.4796 23.4902 20.1837 22.9788 19.8049 22.6426C19.4261 22.3065 18.9834 22.1384 18.4767 22.1384C17.7239 22.1384 17.1155 22.5195 16.6515 23.2818C16.1874 24.0394 15.9531 25.2042 15.9483 26.7762C15.9436 27.8415 16.0454 28.7246 16.2537 29.4253C16.4668 30.1261 16.7651 30.6493 17.1486 30.9949C17.5321 31.3358 17.9748 31.5063 18.4767 31.5063ZM26.6408 34.0276V31.4992L31.9462 26.8543C32.3439 26.4944 32.6825 26.1654 32.9618 25.8671C33.2412 25.564 33.4542 25.261 33.601 24.958C33.7478 24.6502 33.8212 24.3164 33.8212 23.9566C33.8212 23.5541 33.7336 23.2108 33.5584 22.9267C33.3832 22.6379 33.1417 22.4154 32.834 22.2591C32.5262 22.1029 32.1735 22.0247 31.7757 22.0247C31.3733 22.0247 31.0205 22.1076 30.7175 22.2733C30.4145 22.4343 30.1777 22.6687 30.0073 22.9765C29.8416 23.2842 29.7587 23.6583 29.7587 24.0986H26.4277C26.4277 23.109 26.6503 22.2544 27.0953 21.5347C27.5404 20.815 28.1654 20.261 28.9703 19.8728C29.78 19.4798 30.7199 19.2833 31.79 19.2833C32.8932 19.2833 33.852 19.4679 34.6664 19.8372C35.4808 20.2066 36.1105 20.7227 36.5556 21.3855C37.0054 22.0437 37.2303 22.8084 37.2303 23.6796C37.2303 24.2336 37.119 24.7828 36.8965 25.3273C36.6739 25.8718 36.2739 26.4731 35.6962 27.1313C35.1233 27.7894 34.3089 28.5778 33.253 29.4963L31.513 31.1015V31.1938H37.4078V34.0276H26.6408Z" fill="#3A40D8"/>
</g>
<line x1="25.7153" y1="61.9998" x2="25.7153" y2="147" stroke="#3A40D8" stroke-width="1.43056" stroke-dasharray="2.86 2.86"/>
<defs>
<filter id="filter0_i_146_120" x="0" y="0.55542" width="50" height="50.8583" filterUnits="userSpaceOnUse" color-interpolation-filters="sRGB">
<feFlood flood-opacity="0" result="BackgroundImageFix"/>
<feBlend mode="normal" in="SourceGraphic" in2="BackgroundImageFix" result="shape"/>
<feColorMatrix in="SourceAlpha" type="matrix" values="0 0 0 0 0 0 0 0 0 0 0 0 0 0 0 0 0 0 127 0" result="hardAlpha"/>
<feOffset dy="0.858333"/>
<feGaussianBlur stdDeviation="0.858333"/>
<feComposite in2="hardAlpha" operator="arithmetic" k2="-1" k3="1"/>
<feColorMatrix type="matrix" values="0 0 0 0 1 0 0 0 0 1 0 0 0 0 1 0 0 0 0.25 0"/>
<feBlend mode="normal" in2="shape" result="effect1_innerShadow_146_120"/>
</filter>
<linearGradient id="paint0_linear_146_120" x1="25" y1="0.55542" x2="25" y2="50.5554" gradientUnits="userSpaceOnUse">
<stop stop-color="#F3F7FF"/>
<stop offset="1" stop-color="white"/>
</linearGradient>
<linearGradient id="paint1_linear_146_120" x1="0" y1="0.55542" x2="45.8333" y2="58.8888" gradientUnits="userSpaceOnUse">
<stop stop-color="#3A40D8"/>
<stop offset="1" stop-color="#242AB2"/>
</linearGradient>
</defs>
</svg>
