<svg width="50" height="50" viewBox="0 0 50 50" fill="none" xmlns="http://www.w3.org/2000/svg">
<g filter="url(#filter0_i_146_128)">
<rect width="50" height="50" rx="25" fill="url(#paint0_linear_146_128)"/>
<rect x="0.429167" y="0.429167" width="49.1417" height="49.1417" rx="24.5708" stroke="url(#paint1_linear_146_128)" stroke-width="0.858333"/>
<path d="M18.4767 33.4108C17.2078 33.4108 16.1141 33.1101 15.1955 32.5088C14.2769 31.9027 13.5691 31.0339 13.0719 29.9023C12.5748 28.7659 12.3285 27.3999 12.3333 25.8042C12.338 24.2086 12.5866 22.8544 13.079 21.7417C13.5762 20.6243 14.2817 19.7744 15.1955 19.192C16.1141 18.6049 17.2078 18.3113 18.4767 18.3113C19.7457 18.3113 20.8394 18.6049 21.758 19.192C22.6813 19.7744 23.3915 20.6243 23.8887 21.7417C24.3858 22.8592 24.632 24.2133 24.6273 25.8042C24.6273 27.4046 24.3787 28.773 23.8816 29.9094C23.3844 31.0457 22.6766 31.9146 21.758 32.5159C20.8442 33.1125 19.7504 33.4108 18.4767 33.4108ZM18.4767 30.5344C19.2343 30.5344 19.8475 30.1485 20.3162 29.3767C20.785 28.6002 21.017 27.4094 21.0123 25.8042C21.0123 24.7531 20.9057 23.8866 20.6926 23.2048C20.4796 22.5183 20.1837 22.0069 19.8049 21.6707C19.4261 21.3345 18.9834 21.1665 18.4767 21.1665C17.7239 21.1665 17.1155 21.5476 16.6515 22.3099C16.1874 23.0675 15.9531 24.2323 15.9483 25.8042C15.9436 26.8696 16.0454 27.7526 16.2537 28.4534C16.4668 29.1541 16.7651 29.6773 17.1486 30.023C17.5321 30.3639 17.9748 30.5344 18.4767 30.5344ZM32.1735 33.2545C31.0655 33.2545 30.083 33.0651 29.226 32.6863C28.3738 32.3028 27.7014 31.7749 27.209 31.1025C26.7166 30.4302 26.4656 29.656 26.4561 28.7801H29.9931C30.0073 29.0973 30.1091 29.3791 30.2985 29.6253C30.4879 29.8667 30.7459 30.0561 31.0726 30.1934C31.3993 30.3308 31.771 30.3994 32.1877 30.3994C32.6043 30.3994 32.9713 30.326 33.2885 30.1792C33.6105 30.0277 33.8614 29.8218 34.0414 29.5613C34.2213 29.2962 34.3089 28.9932 34.3042 28.6523C34.3089 28.3113 34.2118 28.0083 34.013 27.7432C33.8141 27.478 33.5324 27.272 33.1678 27.1253C32.8079 26.9785 32.3818 26.9051 31.8894 26.9051H30.476V24.4051H31.8894C32.3203 24.4051 32.699 24.3341 33.0257 24.192C33.3572 24.05 33.6152 23.8511 33.7999 23.5954C33.9846 23.335 34.0745 23.0367 34.0698 22.7006C34.0745 22.3738 33.9964 22.0874 33.8354 21.8412C33.6792 21.5902 33.459 21.3961 33.1749 21.2588C32.8955 21.1215 32.5712 21.0528 32.2019 21.0528C31.8136 21.0528 31.4609 21.1215 31.1436 21.2588C30.8311 21.3961 30.5826 21.5902 30.3979 21.8412C30.2132 22.0921 30.1162 22.3833 30.1067 22.7148H26.7473C26.7568 21.8483 26.9983 21.086 27.4718 20.4278C27.9453 19.7649 28.5892 19.2465 29.4036 18.8724C30.2227 18.4984 31.1555 18.3113 32.2019 18.3113C33.2435 18.3113 34.1597 18.4936 34.9505 18.8582C35.7412 19.2228 36.3567 19.72 36.7971 20.3497C37.2374 20.9747 37.4576 21.6826 37.4576 22.4733C37.4623 23.2924 37.1948 23.9671 36.655 24.4974C36.12 25.0277 35.431 25.3544 34.5882 25.4775V25.5912C35.7151 25.7238 36.565 26.0883 37.138 26.6849C37.7156 27.2815 38.0021 28.0273 37.9973 28.9221C37.9973 29.7649 37.7488 30.5131 37.2516 31.1665C36.7592 31.8151 36.0726 32.3265 35.1919 32.7006C34.316 33.0699 33.3098 33.2545 32.1735 33.2545Z" fill="#3A40D8"/>
</g>
<defs>
<filter id="filter0_i_146_128" x="0" y="0" width="50" height="50.8583" filterUnits="userSpaceOnUse" color-interpolation-filters="sRGB">
<feFlood flood-opacity="0" result="BackgroundImageFix"/>
<feBlend mode="normal" in="SourceGraphic" in2="BackgroundImageFix" result="shape"/>
<feColorMatrix in="SourceAlpha" type="matrix" values="0 0 0 0 0 0 0 0 0 0 0 0 0 0 0 0 0 0 127 0" result="hardAlpha"/>
<feOffset dy="0.858333"/>
<feGaussianBlur stdDeviation="0.858333"/>
<feComposite in2="hardAlpha" operator="arithmetic" k2="-1" k3="1"/>
<feColorMatrix type="matrix" values="0 0 0 0 1 0 0 0 0 1 0 0 0 0 1 0 0 0 0.25 0"/>
<feBlend mode="normal" in2="shape" result="effect1_innerShadow_146_128"/>
</filter>
<linearGradient id="paint0_linear_146_128" x1="25" y1="0" x2="25" y2="50" gradientUnits="userSpaceOnUse">
<stop stop-color="#F3F7FF"/>
<stop offset="1" stop-color="white"/>
</linearGradient>
<linearGradient id="paint1_linear_146_128" x1="0" y1="0" x2="45.8333" y2="58.3333" gradientUnits="userSpaceOnUse">
<stop stop-color="#3A40D8"/>
<stop offset="1" stop-color="#242AB2"/>
</linearGradient>
</defs>
</svg>
