<svg width="252" height="50" viewBox="0 0 252 50" fill="none" xmlns="http://www.w3.org/2000/svg">
<g filter="url(#filter0_i_146_105)">
<rect x="0.777832" y="0.472168" width="250.5" height="49" rx="24.5" fill="#3A40D8"/>
<rect x="1.13547" y="0.829807" width="249.785" height="48.2847" rx="24.1424" stroke="url(#paint0_linear_146_105)" stroke-width="0.715278"/>
<path d="M24.8142 30.9722V19.3358H29.2688C30.1097 19.3358 30.8085 19.4684 31.3654 19.7335C31.926 19.9949 32.3445 20.3528 32.621 20.8074C32.9014 21.2619 33.0415 21.7771 33.0415 22.3528C33.0415 22.8263 32.9506 23.2316 32.7688 23.5688C32.587 23.9021 32.3426 24.1729 32.0358 24.3813C31.729 24.5896 31.3862 24.7392 31.0074 24.8301V24.9438C31.4203 24.9665 31.8161 25.0934 32.1949 25.3244C32.5775 25.5517 32.89 25.8737 33.1324 26.2903C33.3748 26.707 33.496 27.2108 33.496 27.8017C33.496 28.404 33.3502 28.9457 33.0585 29.4267C32.7669 29.904 32.3275 30.2809 31.7404 30.5574C31.1532 30.8339 30.4146 30.9722 29.5245 30.9722H24.8142ZM26.9222 29.2108H29.1892C29.9544 29.2108 30.5055 29.065 30.8426 28.7733C31.1835 28.4778 31.354 28.0991 31.354 27.6369C31.354 27.2922 31.2688 26.9816 31.0983 26.7051C30.9279 26.4248 30.6854 26.2051 30.371 26.046C30.0567 25.8832 29.6817 25.8017 29.246 25.8017H26.9222V29.2108ZM26.9222 24.2847H29.0074C29.371 24.2847 29.6987 24.2184 29.9904 24.0858C30.282 23.9494 30.5112 23.7582 30.6779 23.5119C30.8483 23.2619 30.9335 22.9665 30.9335 22.6256C30.9335 22.1748 30.7745 21.8036 30.4563 21.5119C30.1419 21.2203 29.6741 21.0744 29.0529 21.0744H26.9222V24.2847ZM45.7276 25.154C45.7276 26.4078 45.4927 27.4816 45.023 28.3756C44.5571 29.2657 43.9208 29.9475 43.1139 30.421C42.3109 30.8945 41.3999 31.1313 40.381 31.1313C39.3621 31.1313 38.4492 30.8945 37.6424 30.421C36.8393 29.9438 36.203 29.26 35.7333 28.3699C35.2674 27.476 35.0344 26.404 35.0344 25.154C35.0344 23.9002 35.2674 22.8282 35.7333 21.9381C36.203 21.0441 36.8393 20.3604 37.6424 19.8869C38.4492 19.4135 39.3621 19.1767 40.381 19.1767C41.3999 19.1767 42.3109 19.4135 43.1139 19.8869C43.9208 20.3604 44.5571 21.0441 45.023 21.9381C45.4927 22.8282 45.7276 23.9002 45.7276 25.154ZM43.6083 25.154C43.6083 24.2714 43.47 23.5271 43.1935 22.921C42.9208 22.3112 42.542 21.851 42.0571 21.5403C41.5723 21.226 41.0136 21.0688 40.381 21.0688C39.7484 21.0688 39.1897 21.226 38.7049 21.5403C38.22 21.851 37.8393 22.3112 37.5628 22.921C37.2901 23.5271 37.1537 24.2714 37.1537 25.154C37.1537 26.0366 37.2901 26.7828 37.5628 27.3926C37.8393 27.9987 38.22 28.4589 38.7049 28.7733C39.1897 29.0839 39.7484 29.2392 40.381 29.2392C41.0136 29.2392 41.5723 29.0839 42.0571 28.7733C42.542 28.4589 42.9208 27.9987 43.1935 27.3926C43.47 26.7828 43.6083 26.0366 43.6083 25.154ZM58.1182 25.154C58.1182 26.4078 57.8834 27.4816 57.4137 28.3756C56.9478 29.2657 56.3114 29.9475 55.5046 30.421C54.7015 30.8945 53.7906 31.1313 52.7716 31.1313C51.7527 31.1313 50.8398 30.8945 50.033 30.421C49.23 29.9438 48.5936 29.26 48.1239 28.3699C47.658 27.476 47.425 26.404 47.425 25.154C47.425 23.9002 47.658 22.8282 48.1239 21.9381C48.5936 21.0441 49.23 20.3604 50.033 19.8869C50.8398 19.4135 51.7527 19.1767 52.7716 19.1767C53.7906 19.1767 54.7015 19.4135 55.5046 19.8869C56.3114 20.3604 56.9478 21.0441 57.4137 21.9381C57.8834 22.8282 58.1182 23.9002 58.1182 25.154ZM55.9989 25.154C55.9989 24.2714 55.8606 23.5271 55.5841 22.921C55.3114 22.3112 54.9326 21.851 54.4478 21.5403C53.9629 21.226 53.4042 21.0688 52.7716 21.0688C52.139 21.0688 51.5803 21.226 51.0955 21.5403C50.6106 21.851 50.23 22.3112 49.9534 22.921C49.6807 23.5271 49.5443 24.2714 49.5443 25.154C49.5443 26.0366 49.6807 26.7828 49.9534 27.3926C50.23 27.9987 50.6106 28.4589 51.0955 28.7733C51.5803 29.0839 52.139 29.2392 52.7716 29.2392C53.4042 29.2392 53.9629 29.0839 54.4478 28.7733C54.9326 28.4589 55.3114 27.9987 55.5841 27.3926C55.8606 26.7828 55.9989 26.0366 55.9989 25.154ZM60.1111 30.9722V19.3358H62.2191V24.6824H62.3611L66.9009 19.3358H69.4747L64.9747 24.5574L69.5145 30.9722H66.9804L63.5088 25.9835L62.2191 27.5063V30.9722H60.1111ZM76.4023 30.9722H74.1523L78.2489 19.3358H80.8512L84.9534 30.9722H82.7034L79.5955 21.7222H79.5046L76.4023 30.9722ZM76.4762 26.4097H82.6125V28.1028H76.4762V26.4097ZM94.398 30.9722H90.4549V19.3358H94.4776C95.6329 19.3358 96.6253 19.5688 97.4549 20.0347C98.2882 20.4968 98.9283 21.1616 99.3753 22.029C99.8223 22.8964 100.046 23.9343 100.046 25.1426C100.046 26.3547 99.8204 27.3964 99.3696 28.2676C98.9227 29.1388 98.2768 29.8074 97.4321 30.2733C96.5912 30.7392 95.5799 30.9722 94.398 30.9722ZM92.5628 29.1483H94.2958C95.1064 29.1483 95.7825 29.0006 96.3242 28.7051C96.8658 28.4059 97.273 27.9608 97.5458 27.3699C97.8185 26.7752 97.9549 26.0328 97.9549 25.1426C97.9549 24.2525 97.8185 23.5138 97.5458 22.9267C97.273 22.3358 96.8696 21.8945 96.3355 21.6028C95.8052 21.3074 95.1461 21.1597 94.3583 21.1597H92.5628V29.1483ZM102.049 30.9722V19.3358H109.617V21.1028H104.157V24.2619H109.225V26.029H104.157V29.2051H109.662V30.9722H102.049ZM111.767 19.3358H114.347L117.801 27.7676H117.938L121.392 19.3358H123.972V30.9722H121.949V22.9778H121.841L118.625 30.9381H117.114L113.898 22.9608H113.79V30.9722H111.767V19.3358ZM136.665 25.154C136.665 26.4078 136.43 27.4816 135.961 28.3756C135.495 29.2657 134.858 29.9475 134.051 30.421C133.248 30.8945 132.337 31.1313 131.318 31.1313C130.3 31.1313 129.387 30.8945 128.58 30.421C127.777 29.9438 127.14 29.26 126.671 28.3699C126.205 27.476 125.972 26.404 125.972 25.154C125.972 23.9002 126.205 22.8282 126.671 21.9381C127.14 21.0441 127.777 20.3604 128.58 19.8869C129.387 19.4135 130.3 19.1767 131.318 19.1767C132.337 19.1767 133.248 19.4135 134.051 19.8869C134.858 20.3604 135.495 21.0441 135.961 21.9381C136.43 22.8282 136.665 23.9002 136.665 25.154ZM134.546 25.154C134.546 24.2714 134.408 23.5271 134.131 22.921C133.858 22.3112 133.479 21.851 132.995 21.5403C132.51 21.226 131.951 21.0688 131.318 21.0688C130.686 21.0688 130.127 21.226 129.642 21.5403C129.158 21.851 128.777 22.3112 128.5 22.921C128.228 23.5271 128.091 24.2714 128.091 25.154C128.091 26.0366 128.228 26.7828 128.5 27.3926C128.777 27.9987 129.158 28.4589 129.642 28.7733C130.127 29.0839 130.686 29.2392 131.318 29.2392C131.951 29.2392 132.51 29.0839 132.995 28.7733C133.479 28.4589 133.858 27.9987 134.131 27.3926C134.408 26.7828 134.546 26.0366 134.546 25.154ZM142.115 21.1028V19.3358H151.399V21.1028H147.803V30.9722H145.712V21.1028H142.115ZM163.071 25.154C163.071 26.4078 162.836 27.4816 162.367 28.3756C161.901 29.2657 161.265 29.9475 160.458 30.421C159.655 30.8945 158.744 31.1313 157.725 31.1313C156.706 31.1313 155.793 30.8945 154.986 30.421C154.183 29.9438 153.547 29.26 153.077 28.3699C152.611 27.476 152.378 26.404 152.378 25.154C152.378 23.9002 152.611 22.8282 153.077 21.9381C153.547 21.0441 154.183 20.3604 154.986 19.8869C155.793 19.4135 156.706 19.1767 157.725 19.1767C158.744 19.1767 159.655 19.4135 160.458 19.8869C161.265 20.3604 161.901 21.0441 162.367 21.9381C162.836 22.8282 163.071 23.9002 163.071 25.154ZM160.952 25.154C160.952 24.2714 160.814 23.5271 160.537 22.921C160.265 22.3112 159.886 21.851 159.401 21.5403C158.916 21.226 158.357 21.0688 157.725 21.0688C157.092 21.0688 156.533 21.226 156.049 21.5403C155.564 21.851 155.183 22.3112 154.907 22.921C154.634 23.5271 154.497 24.2714 154.497 25.154C154.497 26.0366 154.634 26.7828 154.907 27.3926C155.183 27.9987 155.564 28.4589 156.049 28.7733C156.533 29.0839 157.092 29.2392 157.725 29.2392C158.357 29.2392 158.916 29.0839 159.401 28.7733C159.886 28.4589 160.265 27.9987 160.537 27.3926C160.814 26.7828 160.952 26.0366 160.952 25.154ZM169.007 30.9722H165.064V19.3358H169.087C170.242 19.3358 171.235 19.5688 172.064 20.0347C172.898 20.4968 173.538 21.1616 173.985 22.029C174.432 22.8964 174.655 23.9343 174.655 25.1426C174.655 26.3547 174.43 27.3964 173.979 28.2676C173.532 29.1388 172.886 29.8074 172.042 30.2733C171.201 30.7392 170.189 30.9722 169.007 30.9722ZM167.172 29.1483H168.905C169.716 29.1483 170.392 29.0006 170.934 28.7051C171.475 28.4059 171.882 27.9608 172.155 27.3699C172.428 26.7752 172.564 26.0328 172.564 25.1426C172.564 24.2525 172.428 23.5138 172.155 22.9267C171.882 22.3358 171.479 21.8945 170.945 21.6028C170.415 21.3074 169.756 21.1597 168.968 21.1597H167.172V29.1483ZM177.527 30.9722H175.277L179.374 19.3358H181.976L186.078 30.9722H183.828L180.72 21.7222H180.63L177.527 30.9722ZM177.601 26.4097H183.738V28.1028H177.601V26.4097ZM185.628 19.3358H188.009L190.855 24.4835H190.969L193.816 19.3358H196.196L191.963 26.6313V30.9722H189.861V26.6313L185.628 19.3358Z" fill="white"/>
<path d="M206.725 23.8906L219.996 23.8906L214.308 18.2031L215.023 17.3906L222.065 24.4323L215.023 31.474L214.308 30.6615L219.996 24.974L206.725 24.974L206.725 23.8906Z" fill="white"/>
</g>
<defs>
<filter id="filter0_i_146_105" x="0.777832" y="0.472168" width="250.5" height="50.4306" filterUnits="userSpaceOnUse" color-interpolation-filters="sRGB">
<feFlood flood-opacity="0" result="BackgroundImageFix"/>
<feBlend mode="normal" in="SourceGraphic" in2="BackgroundImageFix" result="shape"/>
<feColorMatrix in="SourceAlpha" type="matrix" values="0 0 0 0 0 0 0 0 0 0 0 0 0 0 0 0 0 0 127 0" result="hardAlpha"/>
<feOffset dy="1.43056"/>
<feGaussianBlur stdDeviation="2.50347"/>
<feComposite in2="hardAlpha" operator="arithmetic" k2="-1" k3="1"/>
<feColorMatrix type="matrix" values="0 0 0 0 0 0 0 0 0 0 0 0 0 0 0 0 0 0 0.16 0"/>
<feBlend mode="normal" in2="shape" result="effect1_innerShadow_146_105"/>
</filter>
<linearGradient id="paint0_linear_146_105" x1="126.028" y1="0.472168" x2="126.028" y2="49.4722" gradientUnits="userSpaceOnUse">
<stop stop-color="white" stop-opacity="0.2"/>
<stop offset="1" stop-color="white" stop-opacity="0"/>
</linearGradient>
</defs>
</svg>
