<svg width="405" height="212" viewBox="0 0 405 212" fill="none" xmlns="http://www.w3.org/2000/svg">
<rect x="1.13547" y="0.468723" width="245.174" height="22.7292" rx="11.3646" fill="#E3ECFE"/>
<rect x="1.13547" y="0.468723" width="245.174" height="22.7292" rx="11.3646" stroke="url(#paint0_radial_146_100)" stroke-width="0.715278"/>
<path d="M13.3408 16.8333V6.65143H19.7243V7.97388H14.877V11.0761H19.3912V12.3936H14.877V15.5108H19.784V16.8333H13.3408ZM21.7763 6.65143H23.6407L26.8821 14.5662H27.0015L30.2429 6.65143H32.1073V16.8333H30.6456V9.46535H30.5512L27.5483 16.8183H26.3353L23.3324 9.46038H23.238V16.8333H21.7763V6.65143ZM34.3408 16.8333V6.65143H37.97C38.7622 6.65143 39.4184 6.79561 39.9388 7.08396C40.4591 7.37231 40.8486 7.76673 41.1071 8.2672C41.3656 8.76436 41.4949 9.32449 41.4949 9.9476C41.4949 10.574 41.364 11.1375 41.1021 11.6379C40.8436 12.1351 40.4525 12.5295 39.9288 12.8212C39.4085 13.1095 38.7539 13.2537 37.9651 13.2537H35.4693V11.9511H37.8259C38.3263 11.9511 38.7323 11.865 39.0439 11.6926C39.3555 11.517 39.5841 11.2783 39.73 10.9767C39.8758 10.6751 39.9487 10.3321 39.9487 9.9476C39.9487 9.56313 39.8758 9.22175 39.73 8.92345C39.5841 8.62515 39.3538 8.39149 39.0389 8.22246C38.7274 8.05342 38.3164 7.96891 37.806 7.96891H35.877V16.8333H34.3408ZM52.1403 11.7423C52.1403 12.8295 51.9415 13.7641 51.5437 14.5463C51.146 15.3252 50.6008 15.9251 49.9081 16.346C49.2187 16.7636 48.4348 16.9725 47.5565 16.9725C46.6749 16.9725 45.8877 16.7636 45.195 16.346C44.5056 15.9251 43.962 15.3235 43.5643 14.5413C43.1666 13.7592 42.9677 12.8261 42.9677 11.7423C42.9677 10.6552 43.1666 9.72222 43.5643 8.94334C43.962 8.16114 44.5056 7.56123 45.195 7.14362C45.8877 6.72269 46.6749 6.51223 47.5565 6.51223C48.4348 6.51223 49.2187 6.72269 49.9081 7.14362C50.6008 7.56123 51.146 8.16114 51.5437 8.94334C51.9415 9.72222 52.1403 10.6552 52.1403 11.7423ZM50.619 11.7423C50.619 10.9137 50.4848 10.2161 50.2163 9.6493C49.9512 9.07923 49.5866 8.64836 49.1226 8.35669C48.6619 8.06171 48.1398 7.91422 47.5565 7.91422C46.9699 7.91422 46.4462 8.06171 45.9855 8.35669C45.5248 8.64836 45.1602 9.07923 44.8917 9.6493C44.6266 10.2161 44.494 10.9137 44.494 11.7423C44.494 12.5709 44.6266 13.2703 44.8917 13.8404C45.1602 14.4071 45.5248 14.838 45.9855 15.133C46.4462 15.4246 46.9699 15.5705 47.5565 15.5705C48.1398 15.5705 48.6619 15.4246 49.1226 15.133C49.5866 14.838 49.9512 14.4071 50.2163 13.8404C50.4848 13.2703 50.619 12.5709 50.619 11.7423ZM55.9262 16.8333L53.1023 6.65143H54.7181L56.7017 14.5364H56.7962L58.8594 6.65143H60.4603L62.5235 14.5413H62.6179L64.5966 6.65143H66.2174L63.3885 16.8333H61.8424L59.6996 9.20683H59.6201L57.4773 16.8333H55.9262ZM67.6181 16.8333V6.65143H74.0016V7.97388H69.1543V11.0761H73.6685V12.3936H69.1543V15.5108H74.0613V16.8333H67.6181ZM76.0537 16.8333V6.65143H79.6829C80.4718 6.65143 81.1263 6.78732 81.6467 7.0591C82.1704 7.33088 82.5615 7.70707 82.82 8.18766C83.0785 8.66493 83.2078 9.21677 83.2078 9.8432C83.2078 10.4663 83.0769 11.0148 82.815 11.4888C82.5565 11.9594 82.1654 12.3257 81.6417 12.5875C81.1214 12.8494 80.4668 12.9803 79.678 12.9803H76.9287V11.6578H79.5388C80.0359 11.6578 80.4403 11.5866 80.7518 11.444C81.0667 11.3015 81.297 11.0944 81.4429 10.8226C81.5887 10.5508 81.6616 10.2244 81.6616 9.8432C81.6616 9.45872 81.587 9.12563 81.4379 8.84391C81.2921 8.56218 81.0617 8.34675 80.7468 8.1976C80.4353 8.04514 80.026 7.96891 79.5189 7.96891H77.5899V16.8333H76.0537ZM81.0799 12.2395L83.5956 16.8333H81.8456L79.3797 12.2395H81.0799ZM86.6133 6.65143V16.8333H85.0771V6.65143H86.6133ZM97.0686 6.65143V16.8333H95.6566L90.4812 9.36592H90.3868V16.8333H88.8505V6.65143H90.2724L95.4528 14.1287H95.5473V6.65143H97.0686ZM106.2 9.86805C106.104 9.56644 105.975 9.29632 105.812 9.05768C105.653 8.81573 105.463 8.61024 105.241 8.44121C105.019 8.26886 104.765 8.13794 104.48 8.04845C104.198 7.95896 103.888 7.91422 103.55 7.91422C102.977 7.91422 102.46 8.06171 101.999 8.35669C101.538 8.65167 101.174 9.0842 100.905 9.65427C100.64 10.221 100.508 10.9154 100.508 11.7374C100.508 12.5627 100.642 13.2603 100.91 13.8304C101.179 14.4005 101.547 14.833 102.014 15.128C102.481 15.423 103.013 15.5705 103.61 15.5705C104.163 15.5705 104.646 15.4578 105.057 15.2324C105.471 15.007 105.791 14.6888 106.016 14.2779C106.245 13.8636 106.359 13.3763 106.359 12.8162L106.757 12.8908H103.844V11.623H107.846V12.7814C107.846 13.6365 107.663 14.3789 107.299 15.0087C106.938 15.6351 106.437 16.119 105.797 16.4604C105.161 16.8018 104.432 16.9725 103.61 16.9725C102.689 16.9725 101.88 16.7603 101.184 16.3361C100.491 15.9119 99.9509 15.3103 99.5631 14.5314C99.1753 13.7492 98.9814 12.8212 98.9814 11.7473C98.9814 10.9353 99.0941 10.2061 99.3195 9.55981C99.5448 8.91351 99.8614 8.36498 100.269 7.91422C100.68 7.46015 101.162 7.11379 101.716 6.87516C102.273 6.6332 102.881 6.51223 103.54 6.51223C104.091 6.51223 104.603 6.59343 105.077 6.75584C105.554 6.91824 105.978 7.14859 106.349 7.44689C106.724 7.74518 107.034 8.09982 107.279 8.51081C107.524 8.91848 107.69 9.37089 107.776 9.86805H106.2ZM113.501 16.8333V6.65143H115.037V15.5108H119.651V16.8333H113.501ZM129.851 11.7423C129.851 12.8295 129.652 13.7641 129.255 14.5463C128.857 15.3252 128.312 15.9251 127.619 16.346C126.93 16.7636 126.146 16.9725 125.267 16.9725C124.386 16.9725 123.599 16.7636 122.906 16.346C122.217 15.9251 121.673 15.3235 121.275 14.5413C120.878 13.7592 120.679 12.8261 120.679 11.7423C120.679 10.6552 120.878 9.72222 121.275 8.94334C121.673 8.16114 122.217 7.56123 122.906 7.14362C123.599 6.72269 124.386 6.51223 125.267 6.51223C126.146 6.51223 126.93 6.72269 127.619 7.14362C128.312 7.56123 128.857 8.16114 129.255 8.94334C129.652 9.72222 129.851 10.6552 129.851 11.7423ZM128.33 11.7423C128.33 10.9137 128.196 10.2161 127.927 9.6493C127.662 9.07923 127.298 8.64836 126.833 8.35669C126.373 8.06171 125.851 7.91422 125.267 7.91422C124.681 7.91422 124.157 8.06171 123.696 8.35669C123.236 8.64836 122.871 9.07923 122.603 9.6493C122.338 10.2161 122.205 10.9137 122.205 11.7423C122.205 12.5709 122.338 13.2703 122.603 13.8404C122.871 14.4071 123.236 14.838 123.696 15.133C124.157 15.4246 124.681 15.5705 125.267 15.5705C125.851 15.5705 126.373 15.4246 126.833 15.133C127.298 14.838 127.662 14.4071 127.927 13.8404C128.196 13.2703 128.33 12.5709 128.33 11.7423ZM140.223 9.96251H138.672C138.612 9.63107 138.501 9.33941 138.339 9.08751C138.177 8.83562 137.978 8.62184 137.742 8.44618C137.507 8.27051 137.244 8.13794 136.952 8.04845C136.664 7.95896 136.357 7.91422 136.032 7.91422C135.446 7.91422 134.92 8.06171 134.456 8.35669C133.995 8.65167 133.631 9.0842 133.362 9.65427C133.097 10.2244 132.965 10.9204 132.965 11.7423C132.965 12.5709 133.097 13.2703 133.362 13.8404C133.631 14.4104 133.997 14.8413 134.461 15.133C134.925 15.4246 135.447 15.5705 136.027 15.5705C136.349 15.5705 136.654 15.5274 136.942 15.4412C137.234 15.3517 137.497 15.2208 137.732 15.0485C137.968 14.8761 138.167 14.6656 138.329 14.4171C138.495 14.1652 138.609 13.8768 138.672 13.552L140.223 13.557C140.14 14.0574 139.98 14.5181 139.741 14.9391C139.506 15.3567 139.202 15.718 138.831 16.0229C138.463 16.3245 138.042 16.5582 137.568 16.7239C137.094 16.8896 136.577 16.9725 136.017 16.9725C135.136 16.9725 134.35 16.7636 133.661 16.346C132.971 15.9251 132.428 15.3235 132.03 14.5413C131.636 13.7592 131.438 12.8261 131.438 11.7423C131.438 10.6552 131.637 9.72222 132.035 8.94334C132.433 8.16114 132.976 7.56123 133.666 7.14362C134.355 6.72269 135.139 6.51223 136.017 6.51223C136.558 6.51223 137.061 6.59012 137.529 6.74589C137.999 6.89836 138.422 7.12373 138.796 7.42203C139.171 7.71701 139.481 8.07828 139.726 8.50584C139.971 8.93008 140.137 9.41564 140.223 9.96251ZM142.853 16.8333H141.223L144.887 6.65143H146.661L150.326 16.8333H148.695L145.816 8.50086H145.737L142.853 16.8333ZM143.127 12.846H148.416V14.1386H143.127V12.846ZM151.796 16.8333V6.65143H153.332V15.5108H157.946V16.8333H151.796ZM171.86 9.96251H170.309C170.249 9.63107 170.138 9.33941 169.976 9.08751C169.813 8.83562 169.614 8.62184 169.379 8.44618C169.144 8.27051 168.88 8.13794 168.589 8.04845C168.3 7.95896 167.994 7.91422 167.669 7.91422C167.082 7.91422 166.557 8.06171 166.093 8.35669C165.632 8.65167 165.268 9.0842 164.999 9.65427C164.734 10.2244 164.601 10.9204 164.601 11.7423C164.601 12.5709 164.734 13.2703 164.999 13.8404C165.268 14.4104 165.634 14.8413 166.098 15.133C166.562 15.4246 167.084 15.5705 167.664 15.5705C167.985 15.5705 168.29 15.5274 168.579 15.4412C168.87 15.3517 169.134 15.2208 169.369 15.0485C169.605 14.8761 169.803 14.6656 169.966 14.4171C170.131 14.1652 170.246 13.8768 170.309 13.552L171.86 13.557C171.777 14.0574 171.616 14.5181 171.378 14.9391C171.142 15.3567 170.839 15.718 170.468 16.0229C170.1 16.3245 169.679 16.5582 169.205 16.7239C168.731 16.8896 168.214 16.9725 167.654 16.9725C166.772 16.9725 165.987 16.7636 165.297 16.346C164.608 15.9251 164.064 15.3235 163.667 14.5413C163.272 13.7592 163.075 12.8261 163.075 11.7423C163.075 10.6552 163.274 9.72222 163.672 8.94334C164.069 8.16114 164.613 7.56123 165.302 7.14362C165.992 6.72269 166.776 6.51223 167.654 6.51223C168.194 6.51223 168.698 6.59012 169.165 6.74589C169.636 6.89836 170.059 7.12373 170.433 7.42203C170.808 7.71701 171.118 8.07828 171.363 8.50584C171.608 8.93008 171.774 9.41564 171.86 9.96251ZM182.543 11.7423C182.543 12.8295 182.344 13.7641 181.946 14.5463C181.548 15.3252 181.003 15.9251 180.31 16.346C179.621 16.7636 178.837 16.9725 177.959 16.9725C177.077 16.9725 176.29 16.7636 175.597 16.346C174.908 15.9251 174.364 15.3235 173.967 14.5413C173.569 13.7592 173.37 12.8261 173.37 11.7423C173.37 10.6552 173.569 9.72222 173.967 8.94334C174.364 8.16114 174.908 7.56123 175.597 7.14362C176.29 6.72269 177.077 6.51223 177.959 6.51223C178.837 6.51223 179.621 6.72269 180.31 7.14362C181.003 7.56123 181.548 8.16114 181.946 8.94334C182.344 9.72222 182.543 10.6552 182.543 11.7423ZM181.021 11.7423C181.021 10.9137 180.887 10.2161 180.619 9.6493C180.354 9.07923 179.989 8.64836 179.525 8.35669C179.064 8.06171 178.542 7.91422 177.959 7.91422C177.372 7.91422 176.849 8.06171 176.388 8.35669C175.927 8.64836 175.563 9.07923 175.294 9.6493C175.029 10.2161 174.896 10.9137 174.896 11.7423C174.896 12.5709 175.029 13.2703 175.294 13.8404C175.563 14.4071 175.927 14.838 176.388 15.133C176.849 15.4246 177.372 15.5705 177.959 15.5705C178.542 15.5705 179.064 15.4246 179.525 15.133C179.989 14.838 180.354 14.4071 180.619 13.8404C180.887 13.2703 181.021 12.5709 181.021 11.7423ZM191.006 6.65143H192.547V13.3482C192.547 14.0608 192.379 14.6922 192.045 15.2423C191.71 15.7892 191.239 16.2201 190.633 16.535C190.026 16.8465 189.315 17.0023 188.5 17.0023C187.688 17.0023 186.979 16.8465 186.372 16.535C185.765 16.2201 185.295 15.7892 184.96 15.2423C184.625 14.6922 184.458 14.0608 184.458 13.3482V6.65143H185.994V13.2239C185.994 13.6846 186.095 14.0939 186.297 14.4519C186.503 14.8098 186.793 15.0915 187.167 15.297C187.542 15.4992 187.986 15.6003 188.5 15.6003C189.017 15.6003 189.463 15.4992 189.837 15.297C190.215 15.0915 190.503 14.8098 190.702 14.4519C190.904 14.0939 191.006 13.6846 191.006 13.2239V6.65143ZM202.998 6.65143V16.8333H201.586L196.411 9.36592H196.316V16.8333H194.78V6.65143H196.202L201.383 14.1287H201.477V6.65143H202.998ZM213.696 9.96251H212.145C212.085 9.63107 211.974 9.33941 211.812 9.08751C211.649 8.83562 211.45 8.62184 211.215 8.44618C210.98 8.27051 210.716 8.13794 210.425 8.04845C210.136 7.95896 209.83 7.91422 209.505 7.91422C208.918 7.91422 208.393 8.06171 207.929 8.35669C207.468 8.65167 207.104 9.0842 206.835 9.65427C206.57 10.2244 206.437 10.9204 206.437 11.7423C206.437 12.5709 206.57 13.2703 206.835 13.8404C207.104 14.4104 207.47 14.8413 207.934 15.133C208.398 15.4246 208.92 15.5705 209.5 15.5705C209.821 15.5705 210.126 15.5274 210.415 15.4412C210.706 15.3517 210.97 15.2208 211.205 15.0485C211.44 14.8761 211.639 14.6656 211.802 14.4171C211.967 14.1652 212.082 13.8768 212.145 13.552L213.696 13.557C213.613 14.0574 213.452 14.5181 213.214 14.9391C212.978 15.3567 212.675 15.718 212.304 16.0229C211.936 16.3245 211.515 16.5582 211.041 16.7239C210.567 16.8896 210.05 16.9725 209.49 16.9725C208.608 16.9725 207.823 16.7636 207.133 16.346C206.444 15.9251 205.9 15.3235 205.503 14.5413C205.108 13.7592 204.911 12.8261 204.911 11.7423C204.911 10.6552 205.11 9.72222 205.508 8.94334C205.905 8.16114 206.449 7.56123 207.138 7.14362C207.828 6.72269 208.612 6.51223 209.49 6.51223C210.03 6.51223 210.534 6.59012 211.001 6.74589C211.472 6.89836 211.895 7.12373 212.269 7.42203C212.644 7.71701 212.953 8.07828 213.199 8.50584C213.444 8.93008 213.61 9.41564 213.696 9.96251ZM217.07 6.65143V16.8333H215.534V6.65143H217.07ZM219.308 16.8333V6.65143H220.844V15.5108H225.457V16.8333H219.308ZM232.763 9.32615C232.71 8.85551 232.491 8.49092 232.107 8.2324C231.722 7.97056 231.239 7.83964 230.655 7.83964C230.238 7.83964 229.876 7.90593 229.571 8.03851C229.266 8.16777 229.03 8.34675 228.86 8.57544C228.695 8.80082 228.612 9.05768 228.612 9.34604C228.612 9.58799 228.668 9.79679 228.781 9.97246C228.897 10.1481 229.048 10.2956 229.233 10.4149C229.422 10.5309 229.624 10.6287 229.84 10.7083C230.055 10.7845 230.262 10.8475 230.461 10.8972L231.456 11.1557C231.78 11.2352 232.114 11.343 232.455 11.4788C232.796 11.6147 233.113 11.7937 233.405 12.0158C233.696 12.2378 233.932 12.5129 234.11 12.8411C234.293 13.1692 234.384 13.5619 234.384 14.0193C234.384 14.596 234.235 15.1081 233.936 15.5556C233.641 16.003 233.212 16.356 232.649 16.6145C232.089 16.873 231.411 17.0023 230.615 17.0023C229.853 17.0023 229.194 16.8813 228.637 16.6394C228.08 16.3974 227.644 16.0544 227.329 15.6102C227.014 15.1628 226.84 14.6325 226.807 14.0193H228.348C228.378 14.3872 228.498 14.6938 228.706 14.9391C228.918 15.181 229.189 15.3617 229.517 15.481C229.848 15.597 230.211 15.655 230.606 15.655C231.04 15.655 231.426 15.587 231.764 15.4511C232.105 15.3119 232.374 15.1197 232.569 14.8744C232.765 14.6259 232.863 14.3359 232.863 14.0044C232.863 13.7028 232.776 13.4559 232.604 13.2636C232.435 13.0714 232.205 12.9123 231.913 12.7864C231.625 12.6604 231.298 12.5494 230.934 12.4533L229.731 12.1252C228.915 11.9031 228.269 11.5766 227.792 11.1458C227.318 10.7149 227.081 10.1448 227.081 9.43552C227.081 8.84888 227.24 8.3368 227.558 7.8993C227.876 7.4618 228.307 7.12208 228.851 6.88013C229.394 6.63486 230.007 6.51223 230.69 6.51223C231.379 6.51223 231.988 6.6332 232.515 6.87516C233.045 7.11711 233.463 7.4502 233.767 7.87444C234.072 8.29537 234.231 8.77927 234.245 9.32615H232.763Z" fill="#0B0B0B"/>
<path d="M10.5778 76.8611V65.0611L0.777832 48.0611H6.39783L13.0178 59.5411L19.6178 48.0611H25.2378L15.4578 65.0611V76.8611H10.5778ZM33.5678 77.4611C31.4078 77.4611 29.5212 76.9744 27.9078 76.0011C26.2945 75.0278 25.0412 73.6878 24.1478 71.9811C23.2678 70.2611 22.8278 68.2878 22.8278 66.0611C22.8278 63.7944 23.2812 61.8077 24.1878 60.1011C25.0945 58.3944 26.3545 57.0611 27.9678 56.1011C29.5812 55.1411 31.4478 54.6611 33.5678 54.6611C35.7412 54.6611 37.6345 55.1478 39.2478 56.1211C40.8612 57.0944 42.1145 58.4411 43.0078 60.1611C43.9012 61.8678 44.3478 63.8344 44.3478 66.0611C44.3478 68.3011 43.8945 70.2811 42.9878 72.0011C42.0945 73.7078 40.8412 75.0478 39.2278 76.0211C37.6145 76.9811 35.7278 77.4611 33.5678 77.4611ZM33.5678 72.9411C35.4878 72.9411 36.9145 72.3011 37.8478 71.0211C38.7812 69.7411 39.2478 68.0878 39.2478 66.0611C39.2478 63.9678 38.7745 62.3011 37.8278 61.0611C36.8812 59.8077 35.4612 59.1811 33.5678 59.1811C32.2745 59.1811 31.2078 59.4744 30.3678 60.0611C29.5412 60.6344 28.9278 61.4411 28.5278 62.4811C28.1278 63.5078 27.9278 64.7011 27.9278 66.0611C27.9278 68.1544 28.4012 69.8278 29.3478 71.0811C30.3078 72.3211 31.7145 72.9411 33.5678 72.9411ZM56.0544 77.4811C54.4544 77.4811 53.1344 77.2144 52.0944 76.6811C51.0544 76.1478 50.2277 75.4678 49.6144 74.6411C49.0011 73.8144 48.5477 72.9344 48.2544 72.0011C47.9611 71.0678 47.7677 70.1878 47.6744 69.3611C47.5944 68.5211 47.5544 67.8411 47.5544 67.3211V55.2611H52.4344V65.6611C52.4344 66.3277 52.4811 67.0811 52.5744 67.9211C52.6677 68.7478 52.8811 69.5478 53.2144 70.3211C53.5611 71.0811 54.0677 71.7078 54.7344 72.2011C55.4144 72.6944 56.3277 72.9411 57.4744 72.9411C58.0877 72.9411 58.6944 72.8411 59.2944 72.6411C59.8944 72.4411 60.4344 72.1011 60.9144 71.6211C61.4077 71.1278 61.8011 70.4544 62.0944 69.6011C62.3877 68.7478 62.5344 67.6678 62.5344 66.3611L65.3944 67.5811C65.3944 69.4211 65.0344 71.0878 64.3144 72.5811C63.6077 74.0744 62.5611 75.2678 61.1744 76.1611C59.7877 77.0411 58.0811 77.4811 56.0544 77.4811ZM63.1144 76.8611V70.1611H62.5344V55.2611H67.3744V76.8611H63.1144ZM72.1935 76.8611V55.2611H76.4535V60.5211L75.9335 59.8411C76.2001 59.1211 76.5535 58.4677 76.9935 57.8811C77.4468 57.2811 77.9868 56.7878 78.6135 56.4011C79.1468 56.0411 79.7335 55.7611 80.3735 55.5611C81.0268 55.3477 81.6935 55.2211 82.3735 55.1811C83.0535 55.1277 83.7135 55.1544 84.3535 55.2611V59.7611C83.7135 59.5744 82.9735 59.5144 82.1335 59.5811C81.3068 59.6478 80.5601 59.8811 79.8935 60.2811C79.2268 60.6411 78.6801 61.1011 78.2535 61.6611C77.8401 62.2211 77.5335 62.8611 77.3335 63.5811C77.1335 64.2878 77.0335 65.0544 77.0335 65.8811V76.8611H72.1935ZM84.9922 124.861V102.921C84.9922 102.374 85.0122 101.774 85.0522 101.121C85.0922 100.454 85.2055 99.7944 85.3922 99.1411C85.5789 98.4878 85.9189 97.8944 86.4122 97.3611C87.0255 96.6811 87.6855 96.2144 88.3922 95.9611C89.1122 95.6944 89.8189 95.5477 90.5122 95.5211C91.2055 95.4811 91.8122 95.4611 92.3322 95.4611H95.0322V99.3811H92.5322C91.6122 99.3811 90.9255 99.6144 90.4722 100.081C90.0322 100.534 89.8122 101.134 89.8122 101.881V124.861H84.9922ZM81.5122 107.041V103.261H95.0322V107.041H81.5122ZM106.188 125.461C104.028 125.461 102.141 124.974 100.528 124.001C98.9148 123.028 97.6615 121.688 96.7681 119.981C95.8881 118.261 95.4481 116.288 95.4481 114.061C95.4481 111.794 95.9015 109.808 96.8081 108.101C97.7148 106.394 98.9748 105.061 100.588 104.101C102.201 103.141 104.068 102.661 106.188 102.661C108.361 102.661 110.255 103.148 111.868 104.121C113.481 105.094 114.735 106.441 115.628 108.161C116.521 109.868 116.968 111.834 116.968 114.061C116.968 116.301 116.515 118.281 115.608 120.001C114.715 121.708 113.461 123.048 111.848 124.021C110.235 124.981 108.348 125.461 106.188 125.461ZM106.188 120.941C108.108 120.941 109.535 120.301 110.468 119.021C111.401 117.741 111.868 116.088 111.868 114.061C111.868 111.968 111.395 110.301 110.448 109.061C109.501 107.808 108.081 107.181 106.188 107.181C104.895 107.181 103.828 107.474 102.988 108.061C102.161 108.634 101.548 109.441 101.148 110.481C100.748 111.508 100.548 112.701 100.548 114.061C100.548 116.154 101.021 117.828 101.968 119.081C102.928 120.321 104.335 120.941 106.188 120.941ZM120.575 124.861V103.261H124.835V108.521L124.315 107.841C124.581 107.121 124.935 106.468 125.375 105.881C125.828 105.281 126.368 104.788 126.995 104.401C127.528 104.041 128.115 103.761 128.755 103.561C129.408 103.348 130.075 103.221 130.755 103.181C131.435 103.128 132.095 103.154 132.735 103.261V107.761C132.095 107.574 131.355 107.514 130.515 107.581C129.688 107.648 128.941 107.881 128.275 108.281C127.608 108.641 127.061 109.101 126.635 109.661C126.221 110.221 125.915 110.861 125.715 111.581C125.515 112.288 125.415 113.054 125.415 113.881V124.861H120.575ZM143.359 99.9811V95.5611H148.179V99.9811H143.359ZM143.359 124.861V103.261H148.179V124.861H143.359ZM168.31 124.861V114.461C168.31 113.781 168.263 113.028 168.17 112.201C168.077 111.374 167.857 110.581 167.51 109.821C167.177 109.048 166.67 108.414 165.99 107.921C165.323 107.428 164.417 107.181 163.27 107.181C162.657 107.181 162.05 107.281 161.45 107.481C160.85 107.681 160.303 108.028 159.81 108.521C159.33 109.001 158.943 109.668 158.65 110.521C158.357 111.361 158.21 112.441 158.21 113.761L155.35 112.541C155.35 110.701 155.703 109.034 156.41 107.541C157.13 106.048 158.183 104.861 159.57 103.981C160.957 103.088 162.663 102.641 164.69 102.641C166.29 102.641 167.61 102.908 168.65 103.441C169.69 103.974 170.517 104.654 171.13 105.481C171.743 106.308 172.197 107.188 172.49 108.121C172.783 109.054 172.97 109.941 173.05 110.781C173.143 111.608 173.19 112.281 173.19 112.801V124.861H168.31ZM153.33 124.861V103.261H157.63V109.961H158.21V124.861H153.33ZM179.489 124.861V102.921C179.489 102.374 179.509 101.774 179.549 101.121C179.589 100.454 179.702 99.7944 179.889 99.1411C180.076 98.4878 180.416 97.8944 180.909 97.3611C181.522 96.6811 182.182 96.2144 182.889 95.9611C183.609 95.6944 184.316 95.5477 185.009 95.5211C185.702 95.4811 186.309 95.4611 186.829 95.4611H189.529V99.3811H187.029C186.109 99.3811 185.422 99.6144 184.969 100.081C184.529 100.534 184.309 101.134 184.309 101.881V124.861H179.489ZM176.009 107.041V103.261H189.529V107.041H176.009ZM200.685 125.461C198.525 125.461 196.638 124.974 195.025 124.001C193.412 123.028 192.158 121.688 191.265 119.981C190.385 118.261 189.945 116.288 189.945 114.061C189.945 111.794 190.398 109.808 191.305 108.101C192.212 106.394 193.472 105.061 195.085 104.101C196.698 103.141 198.565 102.661 200.685 102.661C202.858 102.661 204.752 103.148 206.365 104.121C207.978 105.094 209.232 106.441 210.125 108.161C211.018 109.868 211.465 111.834 211.465 114.061C211.465 116.301 211.012 118.281 210.105 120.001C209.212 121.708 207.958 123.048 206.345 124.021C204.732 124.981 202.845 125.461 200.685 125.461ZM200.685 120.941C202.605 120.941 204.032 120.301 204.965 119.021C205.898 117.741 206.365 116.088 206.365 114.061C206.365 111.968 205.892 110.301 204.945 109.061C203.998 107.808 202.578 107.181 200.685 107.181C199.392 107.181 198.325 107.474 197.485 108.061C196.658 108.634 196.045 109.441 195.645 110.481C195.245 111.508 195.045 112.701 195.045 114.061C195.045 116.154 195.518 117.828 196.465 119.081C197.425 120.321 198.832 120.941 200.685 120.941ZM215.072 124.861V103.261H219.332V108.521L218.812 107.841C219.078 107.121 219.432 106.468 219.872 105.881C220.325 105.281 220.865 104.788 221.492 104.401C222.025 104.041 222.612 103.761 223.252 103.561C223.905 103.348 224.572 103.221 225.252 103.181C225.932 103.128 226.592 103.154 227.232 103.261V107.761C226.592 107.574 225.852 107.514 225.012 107.581C224.185 107.648 223.438 107.881 222.772 108.281C222.105 108.641 221.558 109.101 221.132 109.661C220.718 110.221 220.412 110.861 220.212 111.581C220.012 112.288 219.912 113.054 219.912 113.881V124.861H215.072ZM256.188 124.861V111.741C256.188 110.261 255.821 109.108 255.088 108.281C254.355 107.441 253.361 107.021 252.108 107.021C251.335 107.021 250.641 107.201 250.028 107.561C249.415 107.908 248.928 108.428 248.568 109.121C248.208 109.801 248.028 110.614 248.028 111.561L245.888 110.301C245.875 108.808 246.208 107.494 246.888 106.361C247.581 105.214 248.515 104.321 249.688 103.681C250.861 103.041 252.168 102.721 253.608 102.721C255.995 102.721 257.821 103.441 259.088 104.881C260.368 106.308 261.008 108.188 261.008 110.521V124.861H256.188ZM230.208 124.861V103.261H234.468V109.961H235.068V124.861H230.208ZM243.228 124.861V111.801C243.228 110.294 242.861 109.121 242.128 108.281C241.395 107.441 240.395 107.021 239.128 107.021C237.901 107.021 236.915 107.441 236.168 108.281C235.435 109.121 235.068 110.214 235.068 111.561L232.908 110.121C232.908 108.721 233.255 107.461 233.948 106.341C234.641 105.221 235.575 104.341 236.748 103.701C237.935 103.048 239.261 102.721 240.728 102.721C242.341 102.721 243.688 103.068 244.768 103.761C245.861 104.441 246.675 105.374 247.208 106.561C247.755 107.734 248.028 109.061 248.028 110.541V124.861H243.228ZM271.465 125.461C269.905 125.461 268.585 125.168 267.505 124.581C266.425 123.981 265.605 123.188 265.045 122.201C264.498 121.214 264.225 120.128 264.225 118.941C264.225 117.901 264.398 116.968 264.745 116.141C265.091 115.301 265.625 114.581 266.345 113.981C267.065 113.368 267.998 112.868 269.145 112.481C270.011 112.201 271.025 111.948 272.185 111.721C273.358 111.494 274.625 111.288 275.985 111.101C277.358 110.901 278.791 110.688 280.285 110.461L278.565 111.441C278.578 109.948 278.245 108.848 277.565 108.141C276.885 107.434 275.738 107.081 274.125 107.081C273.151 107.081 272.211 107.308 271.305 107.761C270.398 108.214 269.765 108.994 269.405 110.101L265.005 108.721C265.538 106.894 266.551 105.428 268.045 104.321C269.551 103.214 271.578 102.661 274.125 102.661C276.045 102.661 277.731 102.974 279.185 103.601C280.651 104.228 281.738 105.254 282.445 106.681C282.831 107.441 283.065 108.221 283.145 109.021C283.225 109.808 283.265 110.668 283.265 111.601V124.861H279.045V120.181L279.745 120.941C278.771 122.501 277.631 123.648 276.325 124.381C275.031 125.101 273.411 125.461 271.465 125.461ZM272.425 121.621C273.518 121.621 274.451 121.428 275.225 121.041C275.998 120.654 276.611 120.181 277.065 119.621C277.531 119.061 277.845 118.534 278.005 118.041C278.258 117.428 278.398 116.728 278.425 115.941C278.465 115.141 278.485 114.494 278.485 114.001L279.965 114.441C278.511 114.668 277.265 114.868 276.225 115.041C275.185 115.214 274.291 115.381 273.545 115.541C272.798 115.688 272.138 115.854 271.565 116.041C271.005 116.241 270.531 116.474 270.145 116.741C269.758 117.008 269.458 117.314 269.245 117.661C269.045 118.008 268.945 118.414 268.945 118.881C268.945 119.414 269.078 119.888 269.345 120.301C269.611 120.701 269.998 121.021 270.505 121.261C271.025 121.501 271.665 121.621 272.425 121.621ZM300.332 124.861C298.905 125.128 297.505 125.241 296.132 125.201C294.772 125.174 293.552 124.928 292.472 124.461C291.392 123.981 290.572 123.228 290.012 122.201C289.518 121.268 289.258 120.314 289.232 119.341C289.205 118.368 289.192 117.268 289.192 116.041V97.2611H293.992V115.761C293.992 116.628 293.998 117.388 294.012 118.041C294.038 118.694 294.178 119.228 294.432 119.641C294.912 120.441 295.678 120.888 296.732 120.981C297.785 121.074 298.985 121.021 300.332 120.821V124.861ZM285.272 107.041V103.261H300.332V107.041H285.272ZM304.576 99.9811V95.5611H309.396V99.9811H304.576ZM304.576 124.861V103.261H309.396V124.861H304.576ZM324.127 125.461C321.967 125.461 320.081 124.974 318.467 124.001C316.854 123.028 315.601 121.688 314.707 119.981C313.827 118.261 313.387 116.288 313.387 114.061C313.387 111.794 313.841 109.808 314.747 108.101C315.654 106.394 316.914 105.061 318.527 104.101C320.141 103.141 322.007 102.661 324.127 102.661C326.301 102.661 328.194 103.148 329.807 104.121C331.421 105.094 332.674 106.441 333.567 108.161C334.461 109.868 334.907 111.834 334.907 114.061C334.907 116.301 334.454 118.281 333.547 120.001C332.654 121.708 331.401 123.048 329.787 124.021C328.174 124.981 326.287 125.461 324.127 125.461ZM324.127 120.941C326.047 120.941 327.474 120.301 328.407 119.021C329.341 117.741 329.807 116.088 329.807 114.061C329.807 111.968 329.334 110.301 328.387 109.061C327.441 107.808 326.021 107.181 324.127 107.181C322.834 107.181 321.767 107.474 320.927 108.061C320.101 108.634 319.487 109.441 319.087 110.481C318.687 111.508 318.487 112.701 318.487 114.061C318.487 116.154 318.961 117.828 319.907 119.081C320.867 120.321 322.274 120.941 324.127 120.941ZM353.454 124.861V114.461C353.454 113.781 353.407 113.028 353.314 112.201C353.22 111.374 353 110.581 352.654 109.821C352.32 109.048 351.814 108.414 351.134 107.921C350.467 107.428 349.56 107.181 348.414 107.181C347.8 107.181 347.194 107.281 346.594 107.481C345.994 107.681 345.447 108.028 344.954 108.521C344.474 109.001 344.087 109.668 343.794 110.521C343.5 111.361 343.354 112.441 343.354 113.761L340.494 112.541C340.494 110.701 340.847 109.034 341.554 107.541C342.274 106.048 343.327 104.861 344.714 103.981C346.1 103.088 347.807 102.641 349.834 102.641C351.434 102.641 352.754 102.908 353.794 103.441C354.834 103.974 355.66 104.654 356.274 105.481C356.887 106.308 357.34 107.188 357.634 108.121C357.927 109.054 358.114 109.941 358.194 110.781C358.287 111.608 358.334 112.281 358.334 112.801V124.861H353.454ZM338.474 124.861V103.261H342.774V109.961H343.354V124.861H338.474Z" fill="#0B0B0B"/>
<path d="M92.5778 76.8611L101.658 48.0611H108.718L117.798 76.8611H112.838L104.598 51.0211H105.678L97.5378 76.8611H92.5778ZM97.6378 70.6211V66.1211H112.758V70.6211H97.6378ZM121.014 76.8611V48.0611H125.834V76.8611H121.014ZM138.193 76.8611L138.233 48.0611H143.113V65.6611L151.013 55.2611H157.033L148.653 66.0611L157.753 76.8611H151.373L143.113 66.4611V76.8611H138.193ZM173.896 76.8611V66.4611C173.896 65.7811 173.849 65.0278 173.756 64.2011C173.663 63.3744 173.443 62.5811 173.096 61.8211C172.763 61.0477 172.256 60.4144 171.576 59.9211C170.909 59.4277 170.003 59.1811 168.856 59.1811C168.243 59.1811 167.636 59.2811 167.036 59.4811C166.436 59.6811 165.889 60.0278 165.396 60.5211C164.916 61.0011 164.529 61.6678 164.236 62.5211C163.943 63.3611 163.796 64.4411 163.796 65.7611L160.936 64.5411C160.936 62.7011 161.289 61.0344 161.996 59.5411C162.716 58.0477 163.769 56.8611 165.156 55.9811C166.543 55.0877 168.249 54.6411 170.276 54.6411C171.876 54.6411 173.196 54.9077 174.236 55.4411C175.276 55.9744 176.103 56.6544 176.716 57.4811C177.329 58.3077 177.783 59.1877 178.076 60.1211C178.369 61.0544 178.556 61.9411 178.636 62.7811C178.729 63.6078 178.776 64.2811 178.776 64.8011V76.8611H173.896ZM158.916 76.8611V55.2611H163.216V61.9611H163.796V76.8611H158.916ZM192.383 77.4611C190.223 77.4611 188.337 76.9744 186.723 76.0011C185.11 75.0278 183.857 73.6878 182.963 71.9811C182.083 70.2611 181.643 68.2878 181.643 66.0611C181.643 63.7944 182.097 61.8077 183.003 60.1011C183.91 58.3944 185.17 57.0611 186.783 56.1011C188.397 55.1411 190.263 54.6611 192.383 54.6611C194.557 54.6611 196.45 55.1478 198.063 56.1211C199.677 57.0944 200.93 58.4411 201.823 60.1611C202.717 61.8678 203.163 63.8344 203.163 66.0611C203.163 68.3011 202.71 70.2811 201.803 72.0011C200.91 73.7078 199.657 75.0478 198.043 76.0211C196.43 76.9811 194.543 77.4611 192.383 77.4611ZM192.383 72.9411C194.303 72.9411 195.73 72.3011 196.663 71.0211C197.597 69.7411 198.063 68.0878 198.063 66.0611C198.063 63.9678 197.59 62.3011 196.643 61.0611C195.697 59.8077 194.277 59.1811 192.383 59.1811C191.09 59.1811 190.023 59.4744 189.183 60.0611C188.357 60.6344 187.743 61.4411 187.343 62.4811C186.943 63.5078 186.743 64.7011 186.743 66.0611C186.743 68.1544 187.217 69.8278 188.163 71.0811C189.123 72.3211 190.53 72.9411 192.383 72.9411ZM210.589 76.8611L203.989 55.2211L208.709 55.2611L212.929 69.1211L217.209 55.2611H221.269L225.529 69.1211L229.769 55.2611H234.489L227.889 76.8611H224.129L219.229 62.0011L214.349 76.8611H210.589ZM237.698 76.8611V47.4611H242.518V76.8611H237.698ZM257.529 77.4611C255.342 77.4611 253.422 76.9878 251.769 76.0411C250.116 75.0944 248.822 73.7811 247.889 72.1011C246.969 70.4211 246.509 68.4878 246.509 66.3011C246.509 63.9411 246.962 61.8944 247.869 60.1611C248.776 58.4144 250.036 57.0611 251.649 56.1011C253.262 55.1411 255.129 54.6611 257.249 54.6611C259.489 54.6611 261.389 55.1878 262.949 56.2411C264.522 57.2811 265.689 58.7544 266.449 60.6611C267.209 62.5677 267.496 64.8144 267.309 67.4011H262.529V65.6411C262.516 63.2944 262.102 61.5811 261.289 60.5011C260.476 59.4211 259.196 58.8811 257.449 58.8811C255.476 58.8811 254.009 59.4944 253.049 60.7211C252.089 61.9344 251.609 63.7144 251.609 66.0611C251.609 68.2478 252.089 69.9411 253.049 71.1411C254.009 72.3411 255.409 72.9411 257.249 72.9411C258.436 72.9411 259.456 72.6811 260.309 72.1611C261.176 71.6278 261.842 70.8611 262.309 69.8611L267.069 71.3011C266.242 73.2478 264.962 74.7611 263.229 75.8411C261.509 76.9211 259.609 77.4611 257.529 77.4611ZM250.089 67.4011V63.7611H264.949V67.4011H250.089ZM279.632 77.4611C277.645 77.4611 275.912 76.9611 274.432 75.9611C272.952 74.9611 271.805 73.6011 270.992 71.8811C270.178 70.1611 269.772 68.2211 269.772 66.0611C269.772 63.8744 270.178 61.9277 270.992 60.2211C271.818 58.5011 272.985 57.1477 274.492 56.1611C275.998 55.1611 277.772 54.6611 279.812 54.6611C281.865 54.6611 283.585 55.1611 284.972 56.1611C286.372 57.1477 287.432 58.5011 288.152 60.2211C288.872 61.9411 289.232 63.8878 289.232 66.0611C289.232 68.2078 288.872 70.1478 288.152 71.8811C287.432 73.6011 286.358 74.9611 284.932 75.9611C283.505 76.9611 281.738 77.4611 279.632 77.4611ZM280.372 73.1411C281.665 73.1411 282.705 72.8478 283.492 72.2611C284.292 71.6611 284.872 70.8278 285.232 69.7611C285.605 68.6944 285.792 67.4611 285.792 66.0611C285.792 64.6478 285.605 63.4144 285.232 62.3611C284.872 61.2944 284.305 60.4677 283.532 59.8811C282.758 59.2811 281.758 58.9811 280.532 58.9811C279.238 58.9811 278.172 59.3011 277.332 59.9411C276.492 60.5678 275.872 61.4211 275.472 62.5011C275.072 63.5678 274.872 64.7544 274.872 66.0611C274.872 67.3811 275.065 68.5811 275.452 69.6611C275.852 70.7278 276.458 71.5744 277.272 72.2011C278.085 72.8278 279.118 73.1411 280.372 73.1411ZM285.792 76.8611V61.7011H285.192V48.0611H290.052V76.8611H285.792ZM303.939 87.0611C302.739 87.0611 301.586 86.8744 300.479 86.5011C299.386 86.1278 298.399 85.5878 297.519 84.8811C296.639 84.1878 295.919 83.3478 295.359 82.3611L299.799 80.1611C300.212 80.9478 300.792 81.5278 301.539 81.9011C302.299 82.2878 303.106 82.4811 303.959 82.4811C304.959 82.4811 305.852 82.3011 306.639 81.9411C307.426 81.5944 308.032 81.0744 308.459 80.3811C308.899 79.7011 309.106 78.8478 309.079 77.8211V71.6811H309.679V55.2611H313.899V77.9011C313.899 78.4478 313.872 78.9678 313.819 79.4611C313.779 79.9678 313.706 80.4611 313.599 80.9411C313.279 82.3411 312.666 83.4878 311.759 84.3811C310.852 85.2878 309.726 85.9611 308.379 86.4011C307.046 86.8411 305.566 87.0611 303.939 87.0611ZM303.519 77.4611C301.532 77.4611 299.799 76.9611 298.319 75.9611C296.839 74.9611 295.692 73.6011 294.879 71.8811C294.066 70.1611 293.659 68.2211 293.659 66.0611C293.659 63.8744 294.066 61.9277 294.879 60.2211C295.706 58.5011 296.872 57.1477 298.379 56.1611C299.886 55.1611 301.659 54.6611 303.699 54.6611C305.752 54.6611 307.472 55.1611 308.859 56.1611C310.259 57.1477 311.319 58.5011 312.039 60.2211C312.759 61.9411 313.119 63.8878 313.119 66.0611C313.119 68.2078 312.759 70.1478 312.039 71.8811C311.319 73.6011 310.246 74.9611 308.819 75.9611C307.392 76.9611 305.626 77.4611 303.519 77.4611ZM304.259 73.1411C305.552 73.1411 306.592 72.8478 307.379 72.2611C308.179 71.6611 308.759 70.8278 309.119 69.7611C309.492 68.6944 309.679 67.4611 309.679 66.0611C309.679 64.6478 309.492 63.4144 309.119 62.3611C308.759 61.2944 308.192 60.4677 307.419 59.8811C306.646 59.2811 305.646 58.9811 304.419 58.9811C303.126 58.9811 302.059 59.3011 301.219 59.9411C300.379 60.5678 299.759 61.4211 299.359 62.5011C298.959 63.5678 298.759 64.7544 298.759 66.0611C298.759 67.3811 298.952 68.5811 299.339 69.6611C299.739 70.7278 300.346 71.5744 301.159 72.2011C301.972 72.8278 303.006 73.1411 304.259 73.1411ZM328.528 77.4611C326.341 77.4611 324.421 76.9878 322.768 76.0411C321.114 75.0944 319.821 73.7811 318.888 72.1011C317.968 70.4211 317.508 68.4878 317.508 66.3011C317.508 63.9411 317.961 61.8944 318.868 60.1611C319.774 58.4144 321.034 57.0611 322.648 56.1011C324.261 55.1411 326.128 54.6611 328.248 54.6611C330.488 54.6611 332.388 55.1878 333.948 56.2411C335.521 57.2811 336.688 58.7544 337.448 60.6611C338.208 62.5677 338.494 64.8144 338.308 67.4011H333.528V65.6411C333.514 63.2944 333.101 61.5811 332.288 60.5011C331.474 59.4211 330.194 58.8811 328.448 58.8811C326.474 58.8811 325.008 59.4944 324.048 60.7211C323.088 61.9344 322.608 63.7144 322.608 66.0611C322.608 68.2478 323.088 69.9411 324.048 71.1411C325.008 72.3411 326.408 72.9411 328.248 72.9411C329.434 72.9411 330.454 72.6811 331.308 72.1611C332.174 71.6278 332.841 70.8611 333.308 69.8611L338.068 71.3011C337.241 73.2478 335.961 74.7611 334.228 75.8411C332.508 76.9211 330.608 77.4611 328.528 77.4611ZM321.088 67.4011V63.7611H335.948V67.4011H321.088ZM18.5178 124.861V114.461C18.5178 113.781 18.4712 113.028 18.3778 112.201C18.2845 111.374 18.0645 110.581 17.7178 109.821C17.3845 109.048 16.8778 108.414 16.1978 107.921C15.5312 107.428 14.6245 107.181 13.4778 107.181C12.8645 107.181 12.2578 107.281 11.6578 107.481C11.0578 107.681 10.5112 108.028 10.0178 108.521C9.53783 109.001 9.15117 109.668 8.85783 110.521C8.5645 111.361 8.41783 112.441 8.41783 113.761L5.55783 112.541C5.55783 110.701 5.91117 109.034 6.61783 107.541C7.33783 106.048 8.39117 104.861 9.77783 103.981C11.1645 103.088 12.8712 102.641 14.8978 102.641C16.4978 102.641 17.8178 102.908 18.8578 103.441C19.8978 103.974 20.7245 104.654 21.3378 105.481C21.9512 106.308 22.4045 107.188 22.6978 108.121C22.9912 109.054 23.1778 109.941 23.2578 110.781C23.3512 111.608 23.3978 112.281 23.3978 112.801V124.861H18.5178ZM3.53783 124.861V96.0611H7.83783V111.221H8.41783V124.861H3.53783ZM35.9169 125.481C34.3169 125.481 32.9969 125.214 31.9569 124.681C30.9169 124.148 30.0902 123.468 29.4769 122.641C28.8636 121.814 28.4102 120.934 28.1169 120.001C27.8236 119.068 27.6302 118.188 27.5369 117.361C27.4569 116.521 27.4169 115.841 27.4169 115.321V103.261H32.2969V113.661C32.2969 114.328 32.3436 115.081 32.4369 115.921C32.5302 116.748 32.7436 117.548 33.0769 118.321C33.4236 119.081 33.9302 119.708 34.5969 120.201C35.2769 120.694 36.1902 120.941 37.3369 120.941C37.9502 120.941 38.5569 120.841 39.1569 120.641C39.7569 120.441 40.2969 120.101 40.7769 119.621C41.2702 119.128 41.6636 118.454 41.9569 117.601C42.2502 116.748 42.3969 115.668 42.3969 114.361L45.2569 115.581C45.2569 117.421 44.8969 119.088 44.1769 120.581C43.4702 122.074 42.4236 123.268 41.0369 124.161C39.6502 125.041 37.9436 125.481 35.9169 125.481ZM42.9769 124.861V118.161H42.3969V103.261H47.2369V124.861H42.9769ZM62.436 125.461C60.3293 125.461 58.5626 124.961 57.136 123.961C55.7093 122.961 54.636 121.601 53.916 119.881C53.196 118.148 52.836 116.208 52.836 114.061C52.836 111.888 53.196 109.941 53.916 108.221C54.636 106.501 55.6893 105.148 57.076 104.161C58.476 103.161 60.2026 102.661 62.256 102.661C64.296 102.661 66.0626 103.161 67.556 104.161C69.0626 105.148 70.2293 106.501 71.056 108.221C71.8826 109.928 72.296 111.874 72.296 114.061C72.296 116.221 71.8893 118.161 71.076 119.881C70.2626 121.601 69.116 122.961 67.636 123.961C66.156 124.961 64.4226 125.461 62.436 125.461ZM52.016 124.861V96.0611H56.876V109.701H56.276V124.861H52.016ZM61.696 121.141C62.9493 121.141 63.9826 120.828 64.796 120.201C65.6093 119.574 66.2093 118.728 66.596 117.661C66.996 116.581 67.196 115.381 67.196 114.061C67.196 112.754 66.996 111.568 66.596 110.501C66.196 109.421 65.576 108.568 64.736 107.941C63.896 107.301 62.8293 106.981 61.536 106.981C60.3093 106.981 59.3093 107.281 58.536 107.881C57.7626 108.468 57.1893 109.294 56.816 110.361C56.456 111.414 56.276 112.648 56.276 114.061C56.276 115.461 56.456 116.694 56.816 117.761C57.1893 118.828 57.7693 119.661 58.556 120.261C59.356 120.848 60.4026 121.141 61.696 121.141Z" fill="#3A40D8"/>
<g filter="url(#filter0_i_146_100)">
<rect x="0.777832" y="162.472" width="250.5" height="49" rx="24.5" fill="#3A40D8"/>
<rect x="1.13547" y="162.83" width="249.785" height="48.2847" rx="24.1424" stroke="url(#paint1_linear_146_100)" stroke-width="0.715278"/>
<path d="M24.8142 192.972V181.336H29.2688C30.1097 181.336 30.8085 181.468 31.3654 181.734C31.926 181.995 32.3445 182.353 32.621 182.807C32.9014 183.262 33.0415 183.777 33.0415 184.353C33.0415 184.826 32.9506 185.232 32.7688 185.569C32.587 185.902 32.3426 186.173 32.0358 186.381C31.729 186.59 31.3862 186.739 31.0074 186.83V186.944C31.4203 186.966 31.8161 187.093 32.1949 187.324C32.5775 187.552 32.89 187.874 33.1324 188.29C33.3748 188.707 33.496 189.211 33.496 189.802C33.496 190.404 33.3502 190.946 33.0585 191.427C32.7669 191.904 32.3275 192.281 31.7404 192.557C31.1532 192.834 30.4146 192.972 29.5245 192.972H24.8142ZM26.9222 191.211H29.1892C29.9544 191.211 30.5055 191.065 30.8426 190.773C31.1835 190.478 31.354 190.099 31.354 189.637C31.354 189.292 31.2688 188.982 31.0983 188.705C30.9279 188.425 30.6854 188.205 30.371 188.046C30.0567 187.883 29.6817 187.802 29.246 187.802H26.9222V191.211ZM26.9222 186.285H29.0074C29.371 186.285 29.6987 186.218 29.9904 186.086C30.282 185.949 30.5112 185.758 30.6779 185.512C30.8483 185.262 30.9335 184.966 30.9335 184.626C30.9335 184.175 30.7745 183.804 30.4563 183.512C30.1419 183.22 29.6741 183.074 29.0529 183.074H26.9222V186.285ZM45.7276 187.154C45.7276 188.408 45.4927 189.482 45.023 190.376C44.5571 191.266 43.9208 191.948 43.1139 192.421C42.3109 192.895 41.3999 193.131 40.381 193.131C39.3621 193.131 38.4492 192.895 37.6424 192.421C36.8393 191.944 36.203 191.26 35.7333 190.37C35.2674 189.476 35.0344 188.404 35.0344 187.154C35.0344 185.9 35.2674 184.828 35.7333 183.938C36.203 183.044 36.8393 182.36 37.6424 181.887C38.4492 181.413 39.3621 181.177 40.381 181.177C41.3999 181.177 42.3109 181.413 43.1139 181.887C43.9208 182.36 44.5571 183.044 45.023 183.938C45.4927 184.828 45.7276 185.9 45.7276 187.154ZM43.6083 187.154C43.6083 186.271 43.47 185.527 43.1935 184.921C42.9208 184.311 42.542 183.851 42.0571 183.54C41.5723 183.226 41.0136 183.069 40.381 183.069C39.7484 183.069 39.1897 183.226 38.7049 183.54C38.22 183.851 37.8393 184.311 37.5628 184.921C37.2901 185.527 37.1537 186.271 37.1537 187.154C37.1537 188.037 37.2901 188.783 37.5628 189.393C37.8393 189.999 38.22 190.459 38.7049 190.773C39.1897 191.084 39.7484 191.239 40.381 191.239C41.0136 191.239 41.5723 191.084 42.0571 190.773C42.542 190.459 42.9208 189.999 43.1935 189.393C43.47 188.783 43.6083 188.037 43.6083 187.154ZM58.1182 187.154C58.1182 188.408 57.8834 189.482 57.4137 190.376C56.9478 191.266 56.3114 191.948 55.5046 192.421C54.7015 192.895 53.7906 193.131 52.7716 193.131C51.7527 193.131 50.8398 192.895 50.033 192.421C49.23 191.944 48.5936 191.26 48.1239 190.37C47.658 189.476 47.425 188.404 47.425 187.154C47.425 185.9 47.658 184.828 48.1239 183.938C48.5936 183.044 49.23 182.36 50.033 181.887C50.8398 181.413 51.7527 181.177 52.7716 181.177C53.7906 181.177 54.7015 181.413 55.5046 181.887C56.3114 182.36 56.9478 183.044 57.4137 183.938C57.8834 184.828 58.1182 185.9 58.1182 187.154ZM55.9989 187.154C55.9989 186.271 55.8606 185.527 55.5841 184.921C55.3114 184.311 54.9326 183.851 54.4478 183.54C53.9629 183.226 53.4042 183.069 52.7716 183.069C52.139 183.069 51.5803 183.226 51.0955 183.54C50.6106 183.851 50.23 184.311 49.9534 184.921C49.6807 185.527 49.5443 186.271 49.5443 187.154C49.5443 188.037 49.6807 188.783 49.9534 189.393C50.23 189.999 50.6106 190.459 51.0955 190.773C51.5803 191.084 52.139 191.239 52.7716 191.239C53.4042 191.239 53.9629 191.084 54.4478 190.773C54.9326 190.459 55.3114 189.999 55.5841 189.393C55.8606 188.783 55.9989 188.037 55.9989 187.154ZM60.1111 192.972V181.336H62.2191V186.682H62.3611L66.9009 181.336H69.4747L64.9747 186.557L69.5145 192.972H66.9804L63.5088 187.984L62.2191 189.506V192.972H60.1111ZM76.4023 192.972H74.1523L78.2489 181.336H80.8512L84.9534 192.972H82.7034L79.5955 183.722H79.5046L76.4023 192.972ZM76.4762 188.41H82.6125V190.103H76.4762V188.41ZM94.398 192.972H90.4549V181.336H94.4776C95.6329 181.336 96.6253 181.569 97.4549 182.035C98.2882 182.497 98.9283 183.162 99.3753 184.029C99.8223 184.896 100.046 185.934 100.046 187.143C100.046 188.355 99.8204 189.396 99.3696 190.268C98.9227 191.139 98.2768 191.807 97.4321 192.273C96.5912 192.739 95.5799 192.972 94.398 192.972ZM92.5628 191.148H94.2958C95.1064 191.148 95.7825 191.001 96.3242 190.705C96.8658 190.406 97.273 189.961 97.5458 189.37C97.8185 188.775 97.9549 188.033 97.9549 187.143C97.9549 186.252 97.8185 185.514 97.5458 184.927C97.273 184.336 96.8696 183.895 96.3355 183.603C95.8052 183.307 95.1461 183.16 94.3583 183.16H92.5628V191.148ZM102.049 192.972V181.336H109.617V183.103H104.157V186.262H109.225V188.029H104.157V191.205H109.662V192.972H102.049ZM111.767 181.336H114.347L117.801 189.768H117.938L121.392 181.336H123.972V192.972H121.949V184.978H121.841L118.625 192.938H117.114L113.898 184.961H113.79V192.972H111.767V181.336ZM136.665 187.154C136.665 188.408 136.43 189.482 135.961 190.376C135.495 191.266 134.858 191.948 134.051 192.421C133.248 192.895 132.337 193.131 131.318 193.131C130.3 193.131 129.387 192.895 128.58 192.421C127.777 191.944 127.14 191.26 126.671 190.37C126.205 189.476 125.972 188.404 125.972 187.154C125.972 185.9 126.205 184.828 126.671 183.938C127.14 183.044 127.777 182.36 128.58 181.887C129.387 181.413 130.3 181.177 131.318 181.177C132.337 181.177 133.248 181.413 134.051 181.887C134.858 182.36 135.495 183.044 135.961 183.938C136.43 184.828 136.665 185.9 136.665 187.154ZM134.546 187.154C134.546 186.271 134.408 185.527 134.131 184.921C133.858 184.311 133.479 183.851 132.995 183.54C132.51 183.226 131.951 183.069 131.318 183.069C130.686 183.069 130.127 183.226 129.642 183.54C129.158 183.851 128.777 184.311 128.5 184.921C128.228 185.527 128.091 186.271 128.091 187.154C128.091 188.037 128.228 188.783 128.5 189.393C128.777 189.999 129.158 190.459 129.642 190.773C130.127 191.084 130.686 191.239 131.318 191.239C131.951 191.239 132.51 191.084 132.995 190.773C133.479 190.459 133.858 189.999 134.131 189.393C134.408 188.783 134.546 188.037 134.546 187.154ZM142.115 183.103V181.336H151.399V183.103H147.803V192.972H145.712V183.103H142.115ZM163.071 187.154C163.071 188.408 162.836 189.482 162.367 190.376C161.901 191.266 161.265 191.948 160.458 192.421C159.655 192.895 158.744 193.131 157.725 193.131C156.706 193.131 155.793 192.895 154.986 192.421C154.183 191.944 153.547 191.26 153.077 190.37C152.611 189.476 152.378 188.404 152.378 187.154C152.378 185.9 152.611 184.828 153.077 183.938C153.547 183.044 154.183 182.36 154.986 181.887C155.793 181.413 156.706 181.177 157.725 181.177C158.744 181.177 159.655 181.413 160.458 181.887C161.265 182.36 161.901 183.044 162.367 183.938C162.836 184.828 163.071 185.9 163.071 187.154ZM160.952 187.154C160.952 186.271 160.814 185.527 160.537 184.921C160.265 184.311 159.886 183.851 159.401 183.54C158.916 183.226 158.357 183.069 157.725 183.069C157.092 183.069 156.533 183.226 156.049 183.54C155.564 183.851 155.183 184.311 154.907 184.921C154.634 185.527 154.497 186.271 154.497 187.154C154.497 188.037 154.634 188.783 154.907 189.393C155.183 189.999 155.564 190.459 156.049 190.773C156.533 191.084 157.092 191.239 157.725 191.239C158.357 191.239 158.916 191.084 159.401 190.773C159.886 190.459 160.265 189.999 160.537 189.393C160.814 188.783 160.952 188.037 160.952 187.154ZM169.007 192.972H165.064V181.336H169.087C170.242 181.336 171.235 181.569 172.064 182.035C172.898 182.497 173.538 183.162 173.985 184.029C174.432 184.896 174.655 185.934 174.655 187.143C174.655 188.355 174.43 189.396 173.979 190.268C173.532 191.139 172.886 191.807 172.042 192.273C171.201 192.739 170.189 192.972 169.007 192.972ZM167.172 191.148H168.905C169.716 191.148 170.392 191.001 170.934 190.705C171.475 190.406 171.882 189.961 172.155 189.37C172.428 188.775 172.564 188.033 172.564 187.143C172.564 186.252 172.428 185.514 172.155 184.927C171.882 184.336 171.479 183.895 170.945 183.603C170.415 183.307 169.756 183.16 168.968 183.16H167.172V191.148ZM177.527 192.972H175.277L179.374 181.336H181.976L186.078 192.972H183.828L180.72 183.722H180.63L177.527 192.972ZM177.601 188.41H183.738V190.103H177.601V188.41ZM185.628 181.336H188.009L190.855 186.484H190.969L193.816 181.336H196.196L191.963 188.631V192.972H189.861V188.631L185.628 181.336Z" fill="white"/>
<path d="M206.725 185.891L219.996 185.891L214.308 180.203L215.023 179.391L222.065 186.432L215.023 193.474L214.308 192.661L219.996 186.974L206.725 186.974L206.725 185.891Z" fill="white"/>
</g>
<defs>
<filter id="filter0_i_146_100" x="0.777832" y="162.472" width="250.5" height="50.4306" filterUnits="userSpaceOnUse" color-interpolation-filters="sRGB">
<feFlood flood-opacity="0" result="BackgroundImageFix"/>
<feBlend mode="normal" in="SourceGraphic" in2="BackgroundImageFix" result="shape"/>
<feColorMatrix in="SourceAlpha" type="matrix" values="0 0 0 0 0 0 0 0 0 0 0 0 0 0 0 0 0 0 127 0" result="hardAlpha"/>
<feOffset dy="1.43056"/>
<feGaussianBlur stdDeviation="2.50347"/>
<feComposite in2="hardAlpha" operator="arithmetic" k2="-1" k3="1"/>
<feColorMatrix type="matrix" values="0 0 0 0 0 0 0 0 0 0 0 0 0 0 0 0 0 0 0.16 0"/>
<feBlend mode="normal" in2="shape" result="effect1_innerShadow_146_100"/>
</filter>
<radialGradient id="paint0_radial_146_100" cx="0" cy="0" r="1" gradientUnits="userSpaceOnUse" gradientTransform="translate(123.722 11.8333) scale(122.944 11.7222)">
<stop stop-color="white"/>
<stop offset="1" stop-color="#DDE5F8"/>
</radialGradient>
<linearGradient id="paint1_linear_146_100" x1="126.028" y1="162.472" x2="126.028" y2="211.472" gradientUnits="userSpaceOnUse">
<stop stop-color="white" stop-opacity="0.2"/>
<stop offset="1" stop-color="white" stop-opacity="0"/>
</linearGradient>
</defs>
</svg>
