<svg width="40" height="41" viewBox="0 0 40 41" fill="none" xmlns="http://www.w3.org/2000/svg">
<g filter="url(#filter0_b_146_141)">
<rect y="0.5" width="40" height="40" rx="20" fill="white" fill-opacity="0.1"/>
<rect y="0.5" width="40" height="40" rx="20" fill="url(#paint0_linear_146_141)" fill-opacity="0.7"/>
<rect x="0.255811" y="0.755811" width="39.4884" height="39.4884" rx="19.7442" stroke="white" stroke-width="0.511622"/>
</g>
<path d="M20.25 10.5C18.0628 10.5026 15.9658 11.3726 14.4192 12.9192C12.8726 14.4658 12.0026 16.5628 12 18.75C11.9974 20.5374 12.5812 22.2763 13.662 23.7C13.662 23.7 13.887 23.9963 13.9238 24.039L20.25 31.5L26.5793 24.0353C26.6123 23.9955 26.838 23.7 26.838 23.7L26.8388 23.6978C27.919 22.2747 28.5026 20.5366 28.5 18.75C28.4974 16.5628 27.6274 14.4658 26.0808 12.9192C24.5342 11.3726 22.4373 10.5026 20.25 10.5ZM20.25 21.75C19.6567 21.75 19.0766 21.5741 18.5833 21.2444C18.09 20.9148 17.7054 20.4462 17.4784 19.8981C17.2513 19.3499 17.1919 18.7467 17.3077 18.1647C17.4234 17.5828 17.7091 17.0482 18.1287 16.6287C18.5482 16.2091 19.0828 15.9234 19.6647 15.8076C20.2467 15.6919 20.8499 15.7513 21.3981 15.9784C21.9462 16.2054 22.4148 16.5899 22.7444 17.0833C23.0741 17.5766 23.25 18.1567 23.25 18.75C23.249 19.5453 22.9326 20.3078 22.3702 20.8702C21.8078 21.4326 21.0454 21.749 20.25 21.75Z" fill="white"/>
<defs>
<filter id="filter0_b_146_141" x="-12.2789" y="-11.7789" width="64.5579" height="64.5579" filterUnits="userSpaceOnUse" color-interpolation-filters="sRGB">
<feFlood flood-opacity="0" result="BackgroundImageFix"/>
<feGaussianBlur in="BackgroundImageFix" stdDeviation="6.13947"/>
<feComposite in2="SourceAlpha" operator="in" result="effect1_backgroundBlur_146_141"/>
<feBlend mode="normal" in="SourceGraphic" in2="effect1_backgroundBlur_146_141" result="shape"/>
</filter>
<linearGradient id="paint0_linear_146_141" x1="20" y1="0.5" x2="20" y2="40.5" gradientUnits="userSpaceOnUse">
<stop stop-color="white" stop-opacity="0.2"/>
<stop offset="1" stop-color="white" stop-opacity="0"/>
</linearGradient>
</defs>
</svg>
