<svg width="40" height="41" viewBox="0 0 40 41" fill="none" xmlns="http://www.w3.org/2000/svg">
<g filter="url(#filter0_b_146_157)">
<rect y="0.5" width="40" height="40" rx="20" fill="white" fill-opacity="0.1"/>
<rect y="0.5" width="40" height="40" rx="20" fill="url(#paint0_linear_146_157)" fill-opacity="0.7"/>
<rect x="0.255811" y="0.755811" width="39.4884" height="39.4884" rx="19.7442" stroke="white" stroke-width="0.511622"/>
</g>
<path d="M26.5831 20.7491H28.4164C28.4164 16.0466 24.8661 12.5 20.1572 12.5V14.3333C23.8807 14.3333 26.5831 17.0311 26.5831 20.7491Z" fill="white"/>
<path d="M20.1669 18C22.0947 18 22.9169 18.8223 22.9169 20.75H24.7503C24.7503 17.7938 23.1232 16.1667 20.1669 16.1667V18ZM23.3038 22.9894C23.1276 22.8293 22.8962 22.744 22.6582 22.7513C22.4203 22.7587 22.1946 22.8582 22.0287 23.0288L19.8351 25.2848C19.3071 25.1839 18.2456 24.853 17.1529 23.7631C16.0603 22.6695 15.7293 21.6053 15.6313 21.0809L17.8853 18.8864C18.0562 18.7206 18.1559 18.4949 18.1632 18.2569C18.1706 18.0189 18.0851 17.7874 17.9248 17.6113L14.5377 13.8869C14.3773 13.7103 14.1544 13.6032 13.9163 13.5883C13.6782 13.5734 13.4437 13.652 13.2626 13.8072L11.2734 15.5131C11.1149 15.6722 11.0204 15.8838 11.0076 16.108C10.9938 16.3372 10.7317 21.7657 14.941 25.9768C18.6132 29.6481 23.213 29.9167 24.4798 29.9167C24.665 29.9167 24.7787 29.9112 24.8089 29.9093C25.0331 29.8968 25.2446 29.8018 25.4029 29.6426L27.1079 27.6525C27.2633 27.4715 27.3419 27.2371 27.3272 26.999C27.3125 26.7609 27.2055 26.5379 27.0291 26.3774L23.3038 22.9894Z" fill="white"/>
<defs>
<filter id="filter0_b_146_157" x="-12.2789" y="-11.7789" width="64.5579" height="64.5579" filterUnits="userSpaceOnUse" color-interpolation-filters="sRGB">
<feFlood flood-opacity="0" result="BackgroundImageFix"/>
<feGaussianBlur in="BackgroundImageFix" stdDeviation="6.13947"/>
<feComposite in2="SourceAlpha" operator="in" result="effect1_backgroundBlur_146_157"/>
<feBlend mode="normal" in="SourceGraphic" in2="effect1_backgroundBlur_146_157" result="shape"/>
</filter>
<linearGradient id="paint0_linear_146_157" x1="20" y1="0.5" x2="20" y2="40.5" gradientUnits="userSpaceOnUse">
<stop stop-color="white" stop-opacity="0.2"/>
<stop offset="1" stop-color="white" stop-opacity="0"/>
</linearGradient>
</defs>
</svg>
